<?xml version="1.0" encoding="UTF-8"?>
<svg id="Layer_1" xmlns="http://www.w3.org/2000/svg" version="1.1" viewBox="0 0 44 44">
  <!-- Generator: Adobe Illustrator 30.6.0, SVG Export Plug-In . SVG Version: 2.1.4 Build 109)  -->
  <defs>
    <style>
      .st0 {
        stroke: #164a9e;
      }

      .st0, .st1 {
        fill: none;
        stroke-linecap: round;
        stroke-linejoin: round;
        stroke-width: 4px;
      }

      .st1 {
        stroke: #f09d4d;
      }
    </style>
  </defs>
  <g>
    <path class="st1" d="M34.5,15.75v12.5l-12.5,6.25-12.5-6.25v-12.5l12.5-6.25,12.5,6.25Z"/>
    <line class="st1" x1="9.5" y1="15.75" x2="22" y2="22"/>
    <line class="st1" x1="22" y1="22" x2="34.5" y2="15.75"/>
    <line class="st1" x1="22" y1="22" x2="22" y2="34.5"/>
  </g>
  <g>
    <path class="st0" d="M12,2h-5c-2.76,0-5,2.24-5,5v5"/>
    <path class="st0" d="M12,42h-5c-2.76,0-5-2.24-5-5v-5"/>
    <path class="st0" d="M32,2h5c2.76,0,5,2.24,5,5v5"/>
    <path class="st0" d="M32,42h5c2.76,0,5-2.24,5-5v-5"/>
  </g>
</svg>