<svg width="30" height="30" viewBox="0 0 30 30" fill="none" xmlns="http://www.w3.org/2000/svg">
<path fill-rule="evenodd" clip-rule="evenodd" d="M12.6644 24.7911H5.25024C2.3526 24.7911 0 22.4385 0 19.5413V10.5413C0 7.64362 2.3526 5.29102 5.25024 5.29102H7.41456C7.8282 5.29102 8.16444 5.62726 8.16444 6.04126C8.16444 6.4549 7.8282 6.79114 7.41456 6.79114H5.25024C3.18024 6.79114 1.50012 8.47126 1.50012 10.5413V19.5413C1.50012 21.6109 3.18024 23.291 5.25024 23.291H24.1495C26.2192 23.291 27.8996 21.6109 27.8996 19.5413V10.5413C27.8996 8.47126 26.2192 6.79114 24.1495 6.79114H22.4143C22.0007 6.79114 21.6644 6.4549 21.6644 6.04126C21.6644 5.62726 22.0007 5.29102 22.4143 5.29102H24.1495C27.0472 5.29102 29.3994 7.64362 29.3994 10.5413V19.5413C29.3994 22.4385 27.0472 24.7911 24.1495 24.7911H17.1644V28.4523H19.1984C19.6124 28.4523 19.9483 28.7882 19.9483 29.2022C19.9483 29.6162 19.6124 29.9521 19.1984 29.9521H10.6304C10.2164 29.9521 9.88056 29.6162 9.88056 29.2022C9.88056 28.7882 10.2164 28.4523 10.6304 28.4523H12.6644V24.7911ZM15.6643 24.7911H14.1646V28.4523H15.6643V24.7911Z" fill="white"/>
<path fill-rule="evenodd" clip-rule="evenodd" d="M16.8 0.72504L16.9811 1.8414C17.4041 1.99116 17.8095 2.18664 18.1903 2.42388L19.176 1.86948C19.4565 1.7118 19.8057 1.75032 20.0447 1.96488C20.679 2.5344 21.214 3.20508 21.628 3.94992C21.7839 4.23108 21.7435 4.58028 21.5279 4.81824L20.7679 5.6556C20.9145 6.07968 21.0145 6.51852 21.0664 6.9642L22.1147 7.38936C22.4124 7.50996 22.6003 7.80732 22.5813 8.12808C22.5316 8.97876 22.3408 9.8154 22.0164 10.6034C21.894 10.9004 21.5959 11.0869 21.2752 11.0664L20.1466 10.9944C19.9065 11.3735 19.626 11.7252 19.3099 12.0438L19.6311 13.1281C19.7221 13.4363 19.6069 13.7686 19.3445 13.9536C18.6486 14.4454 17.8753 14.8176 17.0571 15.0556C16.7485 15.1452 16.417 15.0282 16.233 14.7647L15.5854 13.8373C15.1393 13.8859 14.6893 13.8859 14.2433 13.8373L13.5957 14.7647C13.4117 15.0282 13.0801 15.1452 12.7716 15.0556C11.9533 14.8176 11.1801 14.4454 10.4842 13.9536C10.2217 13.7686 10.1065 13.4363 10.1976 13.1281L10.5187 12.0438C10.2027 11.7256 9.92222 11.3735 9.6821 10.9948L8.5535 11.0664C8.23274 11.0869 7.93466 10.9004 7.81226 10.6034C7.4879 9.8154 7.2971 8.97876 7.24742 8.12808C7.22834 7.80732 7.41626 7.50996 7.71398 7.38936L8.7623 6.96456C8.81414 6.51852 8.91422 6.08004 9.06074 5.65596L8.30078 4.81824C8.08514 4.58028 8.04482 4.23108 8.2007 3.94992C8.6147 3.20508 9.14966 2.5344 9.78398 1.96488C10.023 1.75032 10.3722 1.7118 10.6527 1.86948L11.638 2.42388C12.0189 2.18664 12.4242 1.99116 12.8472 1.84176L13.0287 0.72504C13.0801 0.40788 13.3278 0.15876 13.645 0.10584C14.4852 -0.03528 15.3435 -0.03528 16.1837 0.10584C16.5009 0.15876 16.7485 0.40788 16.8 0.72504ZM15.4093 1.51992C15.0799 1.49328 14.7487 1.49328 14.4193 1.51992L14.2537 2.54016C14.2062 2.83176 13.992 3.06864 13.7062 3.1446C13.1345 3.29688 12.597 3.55572 12.1215 3.9078C11.8839 4.08384 11.5653 4.10364 11.3075 3.95892L10.4068 3.45204C10.1807 3.69324 9.97406 3.95208 9.78938 4.2264L10.4838 4.99212C10.6822 5.211 10.7337 5.526 10.6152 5.79672C10.3776 6.33852 10.2448 6.92064 10.2235 7.51176C10.2131 7.80696 10.0299 8.06868 9.7559 8.17992L8.7983 8.56836C8.84582 8.8956 8.91962 9.21816 9.01862 9.53388L10.05 9.468C10.3452 9.44928 10.6235 9.60552 10.7614 9.86724C11.0368 10.3907 11.409 10.8572 11.8579 11.2424C12.0822 11.435 12.1726 11.741 12.0887 12.0247L11.7953 13.0154C12.0808 13.1825 12.3792 13.3261 12.6877 13.4453L13.2796 12.5978C13.4488 12.3556 13.7443 12.2353 14.0349 12.2908C14.6159 12.4016 15.2128 12.4016 15.7938 12.2908C16.0843 12.2353 16.3799 12.3556 16.5491 12.5978L17.1409 13.4453C17.4495 13.3261 17.7479 13.1825 18.0334 13.0154L17.74 12.0247C17.6561 11.741 17.7465 11.435 17.9707 11.2424C18.4197 10.8572 18.7919 10.3907 19.0673 9.86724C19.2052 9.60552 19.4835 9.44928 19.7787 9.468L20.8101 9.53352C20.9091 9.21816 20.9829 8.8956 21.0304 8.56836L20.0728 8.17992C19.7988 8.06868 19.6156 7.80696 19.6051 7.51176C19.5839 6.92064 19.4511 6.33852 19.2135 5.79672C19.095 5.526 19.1465 5.211 19.3449 4.99212L20.0393 4.2264C19.8546 3.95208 19.648 3.69324 19.4219 3.45204L18.5212 3.95892C18.2634 4.10364 17.9448 4.08384 17.7072 3.9078C17.2317 3.55572 16.6942 3.29688 16.1225 3.1446C15.8367 3.06864 15.6225 2.83176 15.5749 2.54016L15.4093 1.51992ZM14.9143 3.81384C17.0481 3.81384 18.7807 5.54616 18.7807 7.68024C18.7807 9.81396 17.0481 11.5466 14.9143 11.5466C12.7806 11.5466 11.0479 9.81396 11.0479 7.68024C11.0479 5.54616 12.7806 3.81384 14.9143 3.81384ZM14.9143 5.31396C13.6083 5.31396 12.5481 6.37416 12.5481 7.68024C12.5481 8.98632 13.6083 10.0465 14.9143 10.0465C16.2204 10.0465 17.2806 8.98632 17.2806 7.68024C17.2806 6.37416 16.2204 5.31396 14.9143 5.31396ZM8.82566 19.5426C8.82566 19.9566 8.48978 20.2925 8.07578 20.2925C7.66178 20.2925 7.32554 19.9566 7.32554 19.5426V12.4481C7.32554 12.0341 7.66178 11.6978 8.07578 11.6978C8.48978 11.6978 8.82566 12.0341 8.82566 12.4481V19.5426ZM11.8255 18.8611C11.8255 19.2751 11.4897 19.611 11.0757 19.611C10.6617 19.611 10.3258 19.2751 10.3258 18.8611V15.448C10.3258 15.034 10.6617 14.6981 11.0757 14.6981C11.4897 14.6981 11.8255 15.034 11.8255 15.448V18.8611ZM14.4204 20.6374C14.4204 21.051 14.0842 21.3872 13.6702 21.3872C13.2565 21.3872 12.9203 21.051 12.9203 20.6374V18.0425C12.9203 17.6288 13.2565 17.2926 13.6702 17.2926C14.0842 17.2926 14.4204 17.6288 14.4204 18.0425V20.6374Z" fill="#FFBC10"/>
<path fill-rule="evenodd" clip-rule="evenodd" d="M22.3852 19.542C22.3852 19.956 22.0489 20.2919 21.6349 20.2919C21.2209 20.2919 20.885 19.956 20.885 19.542V12.4475C20.885 12.0335 21.2209 11.6973 21.6349 11.6973C22.0489 11.6973 22.3852 12.0335 22.3852 12.4475V19.542ZM19.3849 18.8605C19.3849 19.2745 19.049 19.6104 18.635 19.6104C18.221 19.6104 17.8852 19.2745 17.8852 18.8605V15.4474C17.8852 15.0334 18.221 14.6975 18.635 14.6975C19.049 14.6975 19.3849 15.0334 19.3849 15.4474V18.8605ZM16.7904 20.6368C16.7904 21.0504 16.4542 21.3867 16.0405 21.3867C15.6265 21.3867 15.2903 21.0504 15.2903 20.6368V18.0419C15.2903 17.6283 15.6265 17.292 16.0405 17.292C16.4542 17.292 16.7904 17.6283 16.7904 18.0419V20.6368Z" fill="#FFBC10"/>
</svg>
